<svg width="1652" height="479" viewBox="0 0 1652 479" fill="none" xmlns="http://www.w3.org/2000/svg">
<g id="bioptimizers-logo-new-white">
<g id="Group">
<g id="Group_2">
<path id="Vector" d="M290.308 2.23421C284.164 -23.8194 204.291 184.609 138.242 282.693C98.3053 347.061 47.6166 396.103 5.85945e-06 426.754C16.8962 445.145 36.8645 457.405 58.3688 469.666C155.138 480.394 250.371 491.122 331.78 437.482C456.198 342.463 316.42 118.709 290.308 2.23421ZM278.02 52.8088C270.34 175.414 374.789 486.524 188.931 471.198C29.1844 455.873 -19.9683 399.168 165.89 445.145C351.749 491.122 251.907 164.686 278.02 52.8088Z" transform="translate(1269.37)" fill="#C2D500"/>
<path id="Vector_2" opacity="0.35" d="M287.236 2.23421C281.092 -23.8194 201.219 184.609 135.17 282.693C96.7693 345.528 47.6166 394.57 -1.17189e-05 425.221C16.8962 440.547 33.7925 455.873 50.6887 469.666C147.458 480.394 245.763 492.654 327.172 439.015C453.126 342.463 313.348 118.709 287.236 2.23421ZM274.948 52.8088C267.268 175.414 371.717 486.524 185.859 471.198C26.1124 455.873 -23.0403 399.168 162.818 445.145C348.677 491.122 248.835 164.686 274.948 52.8088Z" transform="translate(1272.45)" fill="#80BC00"/>
<g id="Group_3">
<path id="Vector_3" opacity="0.35" d="M152.066 133.333C104.449 122.605 52.2247 99.6166 0 76.6281C24.5763 55.1723 47.6166 29.1187 70.6569 5.84626e-06C70.6569 5.84626e-06 127.49 78.1607 208.899 110.344C196.611 124.138 178.178 133.333 152.066 133.333Z" transform="translate(1313.92 316.409)" fill="#80BC00"/>
<path id="Vector_4" opacity="0.35" d="M23.0403 1.16925e-05C39.9366 4.5977 58.3688 6.13025 76.801 4.59769C73.729 6.13025 70.6569 7.6628 67.5849 9.19536C66.0489 9.19536 64.5129 10.7279 62.9768 10.7279C61.4408 12.2605 58.3688 12.2605 56.8328 13.7931H55.2967C41.4725 18.3908 27.6484 21.4559 12.2882 22.9884C10.7521 22.9884 10.7521 22.9884 9.21611 22.9884C7.68009 22.9884 6.14411 22.9884 3.07206 22.9884C1.53604 22.9884 1.17189e-05 22.9884 1.17189e-05 22.9884C9.21614 18.3908 16.8962 9.19539 23.0403 1.16925e-05Z" transform="translate(1524.36 432.885)" fill="#80BC00"/>
</g>
<path id="Vector_5" d="M368.066 155.458C283.585 130.937 174.528 22.1253 42.4299 20.5927C123.839 23.6579 248.257 121.742 317.378 150.861C282.049 147.795 246.721 146.263 212.928 149.328C192.96 150.861 169.92 146.263 160.703 138.6C105.407 86.4929 51.646 43.5812 0.95735 17.5276C-12.8668 11.3974 125.375 -28.4492 263.617 37.4509C398.787 91.0906 549.317 184.577 649.158 124.807C566.213 178.447 466.372 166.186 368.066 155.458Z" transform="translate(952 314.209)" fill="#C2D500"/>
</g>
<path id="Vector_6" d="M139.274 174.134L155.659 53.2647H192.526L176.141 174.134H139.274ZM188.43 -3.12598e-05C196.622 -3.12598e-05 198.67 4.0973 198.67 12.2919L196.622 26.6324C196.622 32.7783 192.526 36.8756 184.333 36.8756H169.996C161.804 36.8756 159.756 32.7782 159.756 24.5837L161.804 10.2432C161.804 4.09725 165.9 -3.12598e-05 174.093 -3.12598e-05H188.43ZM352.281 92.1888C344.089 159.794 321.559 178.232 270.355 178.232C219.152 178.232 198.67 157.745 206.863 88.0916C215.056 22.5351 237.585 2.04866 288.789 2.04866C339.993 2.04866 362.522 22.535 352.281 92.1888ZM247.826 92.1888C241.681 137.259 245.778 149.551 272.404 149.551C299.03 149.551 307.222 137.259 313.367 90.1402C319.511 45.0701 313.367 32.7783 288.789 32.7783C262.163 32.7783 253.97 43.0214 247.826 92.1888ZM53.2518 43.0215C51.2037 53.2647 49.1556 63.5079 47.1074 71.7024C59.3963 59.4106 77.8296 49.1674 94.2148 49.1674C122.889 49.1674 135.178 65.5565 129.033 114.724C122.889 161.843 104.456 178.232 65.5407 178.232C47.1074 178.232 16.3852 174.134 3.05198e-08 167.989L24.5778 -3.12598e-05H59.3963L53.2518 43.0215ZM36.8667 151.599C45.0593 151.599 53.2518 151.599 55.3 151.599C79.8778 151.599 83.9741 145.454 90.1185 112.675C96.263 83.9943 92.1667 79.897 81.9259 79.897C71.6852 79.897 59.3963 86.043 45.0593 98.3348L36.8667 151.599Z" transform="translate(6 117.551)" fill="#C2D500"/>
<g id="ptimizers" transform="translate(356.24 108.24)">
<path d="M39.96 55.08L37.26 85.59C46.26 76.05 56.52 68.04 68.04 61.56C79.56 55.08 89.82 51.84 98.82 51.84C114.66 51.84 124.92 57.06 129.6 67.5C134.46 77.76 135.09 95.76 131.49 121.5C129.33 135.72 126.63 147.33 123.39 156.33C120.15 165.15 115.74 171.99 110.16 176.85C104.76 181.53 98.73 184.68 92.07 186.3C85.41 188.1 76.77 189 66.15 189C52.83 189 38.79 188.01 24.03 186.03C23.85 194.49 23.13 202.86 21.87 211.14L17.01 242.19H0L26.46 55.08H39.96ZM37.26 99.36L27 173.88C41.22 174.42 52.38 174.69 60.48 174.69C70.74 174.69 78.66 174.15 84.24 173.07C90 171.81 94.95 169.11 99.09 164.97C103.41 160.65 106.56 155.16 108.54 148.5C110.52 141.84 112.41 132.39 114.21 120.15C117.27 99.63 117.54 85.68 115.02 78.3C112.5 70.74 106.02 66.96 95.58 66.96C88.2 66.96 79.2 69.84 68.58 75.6C57.96 81.36 47.52 89.28 37.26 99.36Z" fill="white"/>
<path d="M190.698 68.58L178.818 153.63C177.918 160.29 178.728 165.06 181.248 167.94C183.768 170.82 188.358 172.26 195.018 172.26H216.618L217.428 185.22C209.508 187.02 200.418 187.92 190.158 187.92C179.358 187.92 171.528 185.04 166.668 179.28C161.988 173.52 160.368 165.42 161.808 154.98L173.958 68.58H149.928L151.548 56.43L175.848 55.08L181.518 15.39H198.258L192.858 55.08H236.868L234.708 68.58H190.698Z" fill="white"/>
<path d="M265.281 0H273.111C277.071 0 278.781 1.98001 278.241 5.94001L276.081 21.87C275.541 25.29 273.561 27 270.141 27H262.311C258.171 27 256.371 25.02 256.911 21.06L259.341 5.13C259.521 1.71001 261.501 0 265.281 0ZM252.051 185.76H235.041L253.401 55.08H270.411L252.051 185.76Z" fill="white"/>
<path d="M315.59 55.08L313.16 84.51C336.02 62.55 355.55 51.57 371.75 51.57C382.37 51.57 390.29 54.36 395.51 59.94C400.91 65.34 403.34 72.99 402.8 82.89C424.58 62.01 443.48 51.57 459.5 51.57C471.02 51.57 479.39 54.81 484.61 61.29C489.83 67.59 491.63 76.5 490.01 88.02L476.24 185.76H459.23L472.73 91.53C473.99 82.53 473 76.14 469.76 72.36C466.7 68.4 461.3 66.42 453.56 66.42C446.36 66.42 439.07 68.76 431.69 73.44C424.31 77.94 414.05 86.13 400.91 98.01L388.49 185.76H372.02L385.25 91.53C386.51 82.71 385.61 76.32 382.55 72.36C379.67 68.4 374.18 66.42 366.08 66.42C358.88 66.42 351.5 68.76 343.94 73.44C336.56 78.12 326.39 86.22 313.43 97.74L301.01 185.76H284L302.63 55.08H315.59Z" fill="white"/>
<path d="M538.076 0H545.906C549.866 0 551.576 1.98001 551.036 5.94001L548.876 21.87C548.336 25.29 546.356 27 542.936 27H535.106C530.966 27 529.166 25.02 529.706 21.06L532.136 5.13C532.316 1.71001 534.296 0 538.076 0ZM524.846 185.76H507.836L526.196 55.08H543.206L524.846 185.76Z" fill="white"/>
<path d="M671.545 69.12L570.025 171.45H657.775L655.885 185.76H547.885L549.505 171.45L651.025 69.12H565.165L567.055 55.08H673.435L671.545 69.12Z" fill="white"/>
<path d="M782.547 170.91L783.896 182.52C771.477 186.84 753.927 189 731.247 189C709.286 189 694.346 183.51 686.427 172.53C678.687 161.37 676.617 143.19 680.216 117.99C683.816 92.07 690.746 74.52 701.006 65.34C711.266 56.16 727.737 51.57 750.417 51.57C769.317 51.57 782.547 54.9 790.107 61.56C797.846 68.04 800.276 78.48 797.396 92.88C795.056 104.58 790.286 112.95 783.086 117.99C776.066 123.03 764.996 126.27 749.876 127.71L696.146 132.84C695.066 149.04 697.497 160.02 703.437 165.78C709.377 171.54 719.727 174.42 734.487 174.42C747.447 174.42 763.466 173.25 782.547 170.91ZM697.766 119.61L749.876 114.48C759.776 113.4 766.886 111.33 771.206 108.27C775.526 105.03 778.497 99.45 780.117 91.53C782.457 80.91 781.106 74.07 776.066 71.01C771.026 67.77 762.026 66.15 749.066 66.15C740.426 66.15 733.496 66.78 728.276 68.04C723.057 69.3 718.286 71.82 713.966 75.6C709.826 79.38 706.497 84.69 703.977 91.53C701.636 98.19 699.566 107.19 697.766 118.53V119.61Z" fill="white"/>
<path d="M905.181 51.57L900.861 67.77H894.651C887.091 67.77 879.081 70.2 870.621 75.06C862.161 79.74 850.911 87.57 836.871 98.55L824.721 185.76H807.441L826.071 55.08H839.031L836.601 85.86C860.541 63 881.331 51.57 898.971 51.57H905.181Z" fill="white"/>
<path d="M969.597 134.19L930.717 117.99C921.177 113.85 914.337 109.26 910.197 104.22C906.237 99 904.887 91.53 906.147 81.81C907.947 69.39 912.987 61.2 921.267 57.24C929.547 53.1 942.507 51.21 960.147 51.57C978.867 51.93 996.687 53.28 1013.61 55.62L1011.45 67.77C995.067 66.87 978.147 66.33 960.687 66.15C946.647 65.97 937.107 66.87 932.067 68.85C927.027 70.65 923.967 75.42 922.887 83.16C921.987 89.28 922.797 93.78 925.317 96.66C927.837 99.36 932.517 102.15 939.357 105.03L978.507 121.23C988.947 125.55 996.147 130.23 1000.11 135.27C1004.07 140.13 1005.42 147.42 1004.16 157.14C1003.44 162.9 1001.91 167.76 999.567 171.72C997.227 175.68 994.527 178.83 991.467 181.17C988.587 183.33 984.537 184.95 979.317 186.03C974.097 187.29 968.967 188.1 963.927 188.46C958.887 188.82 952.407 189 944.487 189C932.067 189 915.777 187.74 895.617 185.22L897.777 172.53C908.937 173.79 923.427 174.42 941.247 174.42C958.527 174.06 970.227 172.71 976.347 170.37C982.467 168.03 986.067 163.08 987.147 155.52C987.867 151.38 987.417 147.96 985.797 145.26C984.357 142.38 982.557 140.4 980.397 139.32C978.417 138.06 974.817 136.35 969.597 134.19Z" fill="white"/>
</g>
<g id="TM" transform="translate(1382.84 146.4)">
<path d="M22 4.28H13.48V27.6H8.44V4.28H0V0H22V4.28Z" fill="white"/>
<path d="M45.8319 0H50.9919C52.2452 0 52.8985 0.653334 52.9519 1.96L54.0719 27.6H49.1519L48.2319 4.04H47.4719L42.7119 22.4C42.4185 23.52 41.7252 24.08 40.6319 24.08H36.7919C35.6719 24.08 34.9652 23.52 34.6719 22.4L29.8319 4.04H29.1519L28.2719 27.6H23.3919L24.4319 1.96C24.4852 0.653334 25.1385 0 26.3919 0H31.5919C32.6852 0 33.3652 0.56 33.6319 1.68L37.5519 16.64C37.6052 16.8267 37.8852 18.08 38.3919 20.4H38.9919C39.2852 18.8533 39.5652 17.5867 39.8319 16.6L43.7519 1.68C44.0452 0.56 44.7385 0 45.8319 0Z" fill="white"/>
</g>
<g id="We Fix Digestion" transform="translate(0.899902 372.9)">
<path d="M91.9 2.1L71.7 67.2C70.9 69.8 69.0333 71.1 66.1 71.1H51.7C50.3667 71.1 49.2 70.6667 48.2 69.8C47.2 68.8667 46.6667 67.7667 46.6 66.5L45.3 21.9V13.1H43.4C42.5333 16.7667 41.7667 19.7333 41.1 22L27.4 67.1C26.6 69.7667 24.7 71.1 21.7 71.1H7.2C5.86667 71.1 4.66667 70.6667 3.6 69.8C2.6 68.9333 2.1 67.8667 2.1 66.6L0 2.1H15.2V50.3C15.2 51.4333 15.1333 53.2333 15 55.7C14.9333 58.1 14.9 59.6333 14.9 60.3H16.9C17.2333 58.9 18.2 55.3667 19.8 49.7L33.1 6.5C33.9667 3.56667 35.9 2.1 38.9 2.1H51.8C53.2 2.1 54.3333 2.6 55.2 3.6C56.1333 4.53334 56.6 5.7 56.6 7.1L58.5 50.4C58.6333 54.7333 58.6667 58.0333 58.6 60.3H60.7C61.7 55.7667 62.5333 52.3 63.2 49.9L76.4 2.1H91.9Z" fill="white"/>
<path d="M136.613 59.4L137.613 68.8C132.079 71.1333 124.846 72.3 115.912 72.3C106.512 72.3 100.046 70.1 96.5125 65.7C92.9792 61.3 91.7458 54.5333 92.8125 45.4C94.0125 35.8 96.7458 29.2333 101.012 25.7C105.279 22.1667 112.079 20.4 121.412 20.4C130.079 20.4 135.946 21.8333 139.013 24.7C142.146 27.5667 143.313 31.8 142.513 37.4C141.846 42.0667 139.946 45.4 136.812 47.4C133.679 49.4 128.846 50.6333 122.312 51.1L107.713 52.2C107.779 55.4667 108.579 57.6667 110.112 58.8C111.712 59.9333 114.212 60.5 117.612 60.5C124.079 60.5 130.413 60.1333 136.613 59.4ZM108.612 43.5L120.112 42.4C122.779 42.2 124.713 41.6667 125.912 40.8C127.179 39.9333 127.946 38.3333 128.213 36C128.413 33.8 127.979 32.4333 126.912 31.9C125.912 31.3667 123.746 31.1333 120.412 31.2C116.546 31.2 113.812 32.0333 112.213 33.7C110.679 35.3 109.479 38.5667 108.612 43.5Z" fill="white"/>
<path d="M226.849 14.1H202.749C200.483 14.1 198.883 14.4667 197.949 15.2C197.016 15.9333 196.416 17.3667 196.149 19.5L194.549 31.2H220.849L219.349 42H193.049L188.949 71.1H173.649L181.349 15.8C182.016 11.3333 183.783 7.9 186.649 5.5C189.516 3.03333 193.249 1.8 197.849 1.8C212.049 1.8 222.349 2.2 228.749 3L226.849 14.1Z" fill="white"/>
<path d="M244.327 0H250.527C253.661 0 255.061 1.53333 254.727 4.6L254.027 10C253.627 12.6667 252.027 14 249.227 14H242.927C239.861 14 238.527 12.4667 238.927 9.40001L239.627 4.1C239.894 1.36667 241.461 0 244.327 0ZM245.127 71.1H230.427L237.327 21.8H252.027L245.127 71.1Z" fill="white"/>
<path d="M297.266 45.8L308.766 71.1H294.466L285.666 50.4H284.866L270.166 71.1H254.466L273.266 45.7L262.766 21.8H276.866L284.666 40.8H285.866L299.466 21.8H314.766L297.266 45.8Z" fill="white"/>
<path d="M342.298 71.1L351.998 2.1C360.665 1.5 368.898 1.2 376.698 1.2C384.298 1.2 390.198 2.26667 394.398 4.4C398.598 6.53334 401.432 10.2333 402.898 15.5C404.432 20.7667 404.565 28 403.298 37.2C402.232 44.6667 400.865 50.6667 399.198 55.2C397.598 59.7333 395.332 63.2667 392.398 65.8C389.532 68.2667 386.298 69.9333 382.698 70.8C379.098 71.6 374.332 72 368.398 72C360.865 72 352.165 71.7 342.298 71.1ZM365.698 13.2L359.098 59.9C360.232 59.9 361.832 59.9333 363.898 60C365.965 60 367.398 60 368.198 60C371.398 60 373.932 59.7333 375.798 59.2C377.732 58.6 379.498 57.4667 381.098 55.8C382.698 54.0667 383.932 51.6333 384.798 48.5C385.732 45.3667 386.565 41.2 387.298 36C388.032 31 388.398 27.0667 388.398 24.2C388.465 21.3333 388.032 19.0333 387.098 17.3C386.232 15.5667 384.965 14.4333 383.298 13.9C381.632 13.3667 379.265 13.1 376.198 13.1L365.698 13.2Z" fill="white"/>
<path d="M425.472 0H431.672C434.805 0 436.205 1.53333 435.872 4.6L435.172 10C434.772 12.6667 433.172 14 430.372 14H424.072C421.005 14 419.672 12.4667 420.072 9.40001L420.772 4.1C421.039 1.36667 422.605 0 425.472 0ZM426.272 71.1H411.572L418.472 21.8H433.172L426.272 71.1Z" fill="white"/>
<path d="M494.811 23.4L488.711 66.7C487.644 75.5667 484.544 81.9333 479.411 85.8C474.344 89.7333 467.244 91.7 458.111 91.7C450.311 91.7 444.178 90.8 439.711 89L440.811 80.3C443.078 80.3667 447.778 80.4 454.911 80.4C465.578 80.4 471.911 77.3667 473.911 71.3C474.178 70.5667 474.511 69.4333 474.911 67.9C475.378 66.3 475.844 64.8667 476.311 63.6C476.778 62.2667 477.378 61.0667 478.111 60C475.644 63.6 472.511 66.4667 468.711 68.6C464.978 70.7333 460.811 71.8333 456.211 71.9C450.211 72.0333 446.078 70.0333 443.811 65.9C441.611 61.7667 441.211 54.9667 442.611 45.5C443.278 40.9667 444.178 37.1333 445.311 34C446.511 30.8667 447.778 28.4333 449.111 26.7C450.444 24.9 452.144 23.5333 454.211 22.6C456.278 21.6 458.244 21 460.111 20.8C461.978 20.5333 464.344 20.4 467.211 20.4C477.478 20.4 486.678 21.4 494.811 23.4ZM479.011 31.3H471.011C466.144 31.3 462.911 32.1667 461.311 33.9C459.778 35.5667 458.544 39.5 457.611 45.7C456.678 51.9667 456.444 56 456.911 57.8C457.444 59.6 458.911 60.4333 461.311 60.3C465.778 60.1 470.711 57 476.111 51L479.011 31.3Z" fill="white"/>
<path d="M547.288 59.4L548.288 68.8C542.755 71.1333 535.522 72.3 526.588 72.3C517.188 72.3 510.722 70.1 507.188 65.7C503.655 61.3 502.422 54.5333 503.488 45.4C504.688 35.8 507.422 29.2333 511.688 25.7C515.955 22.1667 522.755 20.4 532.088 20.4C540.755 20.4 546.622 21.8333 549.688 24.7C552.822 27.5667 553.988 31.8 553.188 37.4C552.522 42.0667 550.622 45.4 547.488 47.4C544.355 49.4 539.522 50.6333 532.988 51.1L518.388 52.2C518.455 55.4667 519.255 57.6667 520.788 58.8C522.388 59.9333 524.888 60.5 528.288 60.5C534.755 60.5 541.088 60.1333 547.288 59.4ZM519.288 43.5L530.788 42.4C533.455 42.2 535.388 41.6667 536.588 40.8C537.855 39.9333 538.622 38.3333 538.888 36C539.088 33.8 538.655 32.4333 537.588 31.9C536.588 31.3667 534.422 31.1333 531.088 31.2C527.222 31.2 524.488 32.0333 522.888 33.7C521.355 35.3 520.155 38.5667 519.288 43.5Z" fill="white"/>
<path d="M584.845 53.4L572.945 48.5C568.945 46.9 566.145 44.8667 564.545 42.4C562.945 39.9333 562.379 36.8333 562.845 33.1C563.379 28.5667 565.345 25.3 568.745 23.3C572.212 21.3 577.612 20.3333 584.945 20.4C594.012 20.5333 601.612 21.2 607.745 22.4L606.345 31.8C593.545 31.6 587.045 31.5 586.845 31.5C582.979 31.5 580.412 31.6667 579.145 32C577.879 32.2667 577.145 32.9667 576.945 34.1C576.812 35.2333 577.112 36.1 577.845 36.7C578.645 37.2333 580.145 37.9333 582.345 38.8L594.445 43.6C598.512 45.2 601.379 47.1333 603.045 49.4C604.712 51.6667 605.312 54.7 604.845 58.5C604.445 61.4333 603.645 63.8333 602.445 65.7C601.312 67.5667 599.645 68.9667 597.445 69.9C595.245 70.8333 592.879 71.4333 590.345 71.7C587.812 72.0333 584.579 72.2 580.645 72.2C574.645 72.2 567.412 71.6 558.945 70.4L560.345 60.9C562.745 61.0333 567.979 61.1 576.045 61.1C581.779 61.1 585.579 60.9 587.445 60.5C589.312 60.1 590.379 59.2333 590.645 57.9C590.779 56.9 590.512 56.1667 589.845 55.7C589.245 55.2333 588.012 54.6333 586.145 53.9C585.612 53.7 585.179 53.5333 584.845 53.4Z" fill="white"/>
<path d="M639.087 31.7L635.787 55.3C635.52 57.1667 635.653 58.4333 636.187 59.1C636.787 59.7 638.087 60 640.087 60H646.687L647.387 70.4C643.853 71.6667 639.253 72.3 633.587 72.3C628.92 72.3 625.453 71.0333 623.187 68.5C620.92 65.9 620.12 62.3333 620.787 57.8L624.587 31.7H615.687L616.887 22.3L625.987 21.8L627.987 8H642.487L640.587 21.8H654.187L652.787 31.7H639.087Z" fill="white"/>
<path d="M671.702 0H677.902C681.036 0 682.436 1.53333 682.102 4.6L681.402 10C681.002 12.6667 679.402 14 676.602 14H670.302C667.236 14 665.902 12.4667 666.302 9.40001L667.002 4.1C667.269 1.36667 668.836 0 671.702 0ZM672.502 71.1H657.802L664.702 21.8H679.402L672.502 71.1Z" fill="white"/>
<path d="M716.541 20.4C725.675 20.4 732.041 22.4667 735.641 26.6C739.241 30.7333 740.375 37.5667 739.041 47.1C737.775 56.3667 735.008 62.9 730.741 66.7C726.541 70.5 719.975 72.4 711.041 72.4C701.975 72.4 695.575 70.3333 691.841 66.2C688.175 62.0667 687.008 55.3 688.341 45.9C689.675 36.5667 692.441 30 696.641 26.2C700.841 22.3333 707.475 20.4 716.541 20.4ZM716.441 31.5C712.375 31.5 709.441 32.5333 707.641 34.6C705.908 36.6667 704.608 40.8333 703.741 47.1C702.941 52.8333 703.041 56.6333 704.041 58.5C705.041 60.3667 707.475 61.3 711.341 61.3C715.341 61.3 718.208 60.2667 719.941 58.2C721.675 56.0667 722.975 51.9667 723.841 45.9C724.708 40.1667 724.608 36.3333 723.541 34.4C722.541 32.4667 720.175 31.5 716.441 31.5Z" fill="white"/>
<path d="M766.035 21.8V31.6C773.702 24.1333 781.202 20.4 788.535 20.4C792.735 20.4 795.968 21.6333 798.235 24.1C800.502 26.5 801.302 29.9333 800.635 34.4L795.435 71.1H780.735L785.235 38.8C785.568 36.4667 785.502 34.9 785.035 34.1C784.568 33.2333 783.535 32.8333 781.935 32.9C778.202 32.9667 773.068 35.5667 766.535 40.7L762.335 71.1H747.535L754.435 21.8H766.035Z" fill="white"/>
</g>
</g>
</g>
</svg>
